# xmcd CD database file
#
# Track frame offsets:
#	150
#	35724
#	63180
#	77040
#	133129
#	153174
#	190076
#	213061
#	254808
#
# Disc length: 4018 seconds
#
# Revision: 1
# Processed by: cddbd v1.5.2PL0 Copyright (c) Steve Scherf et al.
# Submitted via: CDex 1.51
#
DISCID=790fb009
DTITLE=Gerhard Polt - Apokalypsen
DYEAR=2008
DGENRE=Kabarett
TTITLE0=Mehr oder weniger
TTITLE1=Ein Mäzen
TTITLE2=Der Regenwurm
TTITLE3=Der Berti
TTITLE4=Dieser Mozart
TTITLE5=Duzi Duzi
TTITLE6=Spinat
TTITLE7=Das CSU-Museum
TTITLE8=Ein Apokalyptiker
EXTD=YEAR: 2008
EXTT0=
EXTT1=
EXTT2=
EXTT3=
EXTT4=
EXTT5=
EXTT6=
EXTT7=
EXTT8=
PLAYORDER=
